<?xml version="1.0" encoding="UTF-8"?>
<svg xmlns="http://www.w3.org/2000/svg" xmlns:xlink="http://www.w3.org/1999/xlink" width="300px" height="150px" viewBox="0 0 300 150" version="1.1">
<g id="surface1">
<path style=" stroke:none;fill-rule:nonzero;fill:rgb(0%,0%,0%);fill-opacity:1;" d="M 161.332031 38.554688 L 161.25 40.609375 L 159.167969 41.222656 C 157.277344 41.792969 152.972656 43.027344 131.945312 49.097656 C 128.195312 50.167969 123.222656 51.609375 120.917969 52.277344 C 118.582031 52.957031 116.667969 53.582031 116.667969 53.667969 C 116.695312 53.832031 117.332031 54.304688 117.582031 54.304688 C 117.75 54.304688 126.167969 51.890625 151.859375 44.472656 C 156.917969 43 161.140625 41.804688 161.25 41.804688 C 161.332031 41.804688 161.390625 42.167969 161.332031 42.597656 L 161.25 43.402344 L 156.390625 44.804688 C 153.722656 45.570312 147.332031 47.417969 142.222656 48.890625 C 137.109375 50.359375 131.054688 52.109375 128.777344 52.777344 C 126.5 53.429688 124.582031 54.027344 124.527344 54.097656 C 124.5 54.179688 124.667969 54.375 124.945312 54.542969 L 125.417969 54.847656 L 128.609375 53.929688 C 132.640625 52.777344 147.859375 48.390625 155 46.304688 C 157.972656 45.445312 160.640625 44.695312 160.890625 44.652344 C 161.359375 44.554688 161.390625 45.777344 161.445312 68.625 L 161.527344 92.707031 L 163.195312 92.707031 L 163.277344 68.304688 L 163.332031 43.917969 L 165.554688 43.277344 C 166.75 42.929688 167.890625 42.640625 168.054688 42.640625 C 168.277344 42.640625 168.359375 44.082031 168.304688 47.722656 C 168.277344 51.902344 168.332031 52.832031 168.640625 52.972656 C 168.945312 53.125 180.25 56.402344 191.609375 59.652344 C 192.890625 60.015625 194 60.390625 194.054688 60.484375 C 194.140625 60.582031 194.167969 60.972656 194.109375 61.359375 L 194.027344 62.070312 L 187.640625 60.207031 C 184.140625 59.179688 181.167969 58.332031 181.054688 58.332031 C 180.695312 58.332031 180.804688 59.265625 181.195312 59.417969 C 181.390625 59.5 184.359375 60.375 187.804688 61.375 L 194.027344 63.167969 L 194.167969 77.929688 L 194.304688 92.707031 L 195.972656 92.707031 L 196.054688 78.292969 C 196.082031 70.375 196.222656 63.890625 196.332031 63.890625 C 196.472656 63.890625 196.777344 63.972656 197.027344 64.054688 C 197.472656 64.222656 197.5 65.277344 197.582031 78.472656 L 197.640625 92.707031 L 199.304688 92.707031 L 199.390625 78.765625 C 199.445312 65.945312 199.472656 64.832031 199.890625 64.917969 C 200.140625 64.972656 203.390625 65.875 207.109375 66.945312 C 210.832031 68.015625 214 68.890625 214.109375 68.890625 C 214.25 68.890625 214.527344 68.722656 214.75 68.527344 C 215.082031 68.207031 215.082031 68.140625 214.722656 68.027344 C 214.5 67.957031 211.054688 66.957031 207.082031 65.820312 C 203.109375 64.667969 199.75 63.679688 199.640625 63.625 C 199.527344 63.554688 199.445312 63.167969 199.5 62.734375 L 199.582031 61.957031 L 204.167969 63.277344 C 206.695312 64.015625 208.890625 64.640625 209.082031 64.679688 C 209.25 64.707031 209.609375 64.554688 209.832031 64.332031 L 210.277344 63.917969 L 204.917969 62.390625 L 199.582031 60.859375 L 199.5 58.832031 L 199.417969 56.792969 L 198.527344 56.832031 L 197.640625 56.875 L 197.554688 58.5 C 197.527344 59.402344 197.390625 60.140625 197.277344 60.140625 C 197.140625 60.140625 196.832031 60.054688 196.582031 59.957031 C 196.167969 59.820312 196.109375 59.402344 196.054688 56.597656 L 195.972656 53.402344 L 195.082031 53.359375 L 194.167969 53.320312 L 194.167969 56.234375 C 194.167969 57.847656 194.082031 59.167969 193.972656 59.167969 C 193.832031 59.167969 190.640625 58.265625 186.804688 57.152344 C 183 56.042969 177.695312 54.527344 175.082031 53.792969 L 170.277344 52.429688 L 170.277344 41.945312 L 171.195312 41.667969 C 171.667969 41.5 174.75 40.625 178 39.695312 C 181.222656 38.765625 183.890625 37.929688 183.890625 37.847656 C 183.890625 37.765625 183.695312 37.570312 183.472656 37.402344 C 183.054688 37.109375 183 37.140625 177.027344 38.847656 C 173.695312 39.804688 170.804688 40.625 170.609375 40.652344 C 170.332031 40.707031 170.277344 40.542969 170.332031 39.917969 L 170.417969 39.109375 L 173.195312 38.320312 C 174.722656 37.875 176 37.457031 176.054688 37.390625 C 176.082031 37.320312 175.890625 37.125 175.609375 36.945312 L 175.109375 36.625 L 172.695312 37.332031 L 170.277344 38.054688 L 170.277344 36.527344 L 168.359375 36.527344 L 168.277344 37.582031 L 168.195312 38.652344 L 165.832031 39.320312 L 163.472656 40 L 163.332031 38.292969 L 163.195312 36.597656 L 162.304688 36.554688 L 161.417969 36.515625 Z M 168.332031 40.609375 L 168.332031 41.359375 L 166.890625 41.777344 C 166.082031 42 164.945312 42.332031 164.390625 42.5 L 163.332031 42.804688 L 163.332031 41.140625 L 165.5 40.5 C 166.667969 40.152344 167.804688 39.875 168 39.859375 C 168.222656 39.859375 168.332031 40.097656 168.332031 40.609375 Z M 197.195312 61.304688 C 197.390625 61.417969 197.5 61.832031 197.445312 62.277344 C 197.359375 63.054688 197.359375 63.054688 196.75 62.847656 C 196.222656 62.667969 196.109375 62.5 196.109375 61.859375 C 196.109375 61.082031 196.5 60.890625 197.195312 61.304688 Z M 197.195312 61.304688 "/>
<path style=" stroke:none;fill-rule:nonzero;fill:rgb(0%,0%,0%);fill-opacity:1;" d="M 150.417969 49.222656 L 142.082031 51.625 L 142.082031 59.320312 L 150.417969 61.765625 L 150.554688 77.234375 L 150.695312 92.707031 L 159.027344 92.707031 L 159.109375 69.875 C 159.140625 57.304688 159.082031 46.984375 158.972656 46.929688 C 158.832031 46.875 155 47.902344 150.417969 49.222656 Z M 150.417969 49.222656 "/>
<path style=" stroke:none;fill-rule:nonzero;fill:rgb(0%,0%,0%);fill-opacity:1;" d="M 135 56.097656 C 132.167969 56.917969 126.5 58.570312 122.359375 59.765625 L 114.859375 61.929688 L 114.722656 59.402344 L 114.582031 56.875 L 113.695312 56.832031 L 112.777344 56.792969 L 112.777344 59.640625 C 112.777344 62.417969 112.777344 62.484375 112.167969 62.695312 C 111.832031 62.820312 111.445312 62.917969 111.332031 62.917969 C 111.195312 62.917969 111.109375 61.542969 111.109375 59.847656 L 111.109375 56.792969 L 110.222656 56.832031 L 109.304688 56.875 L 109.222656 60.222656 L 109.167969 63.570312 L 105.417969 64.640625 C 103.359375 65.234375 101.667969 65.792969 101.667969 65.875 C 101.695312 66.167969 102.472656 66.570312 102.832031 66.484375 C 103.027344 66.457031 104.5 66.042969 106.109375 65.582031 L 109.027344 64.734375 L 109.109375 66.765625 C 109.167969 68.277344 109.082031 68.847656 108.832031 68.972656 C 108.640625 69.054688 106.277344 69.765625 103.609375 70.542969 L 98.75 71.929688 L 98.667969 64.375 L 98.609375 56.804688 L 96.667969 56.804688 L 96.667969 72.5 L 96.054688 72.695312 C 95.695312 72.792969 94.195312 73.234375 92.722656 73.667969 L 90 74.457031 L 90.417969 74.875 C 90.667969 75.097656 90.917969 75.277344 90.972656 75.277344 C 91.027344 75.277344 92.167969 74.957031 93.445312 74.582031 C 94.75 74.195312 96 73.847656 96.25 73.804688 C 96.609375 73.734375 96.667969 74.765625 96.722656 83.207031 L 96.804688 92.707031 L 97.722656 92.75 L 98.609375 92.792969 L 98.609375 73.082031 L 103.75 71.609375 C 106.554688 70.804688 108.945312 70.140625 109.027344 70.140625 C 109.109375 70.140625 109.195312 75.222656 109.222656 81.417969 L 109.304688 92.707031 L 110.222656 92.75 L 111.109375 92.792969 L 111.109375 81.125 C 111.109375 69.722656 111.109375 69.445312 111.640625 69.304688 C 111.945312 69.234375 112.304688 69.167969 112.472656 69.167969 C 112.695312 69.167969 112.804688 72.765625 112.832031 80.929688 L 112.917969 92.707031 L 114.582031 92.707031 L 114.667969 80.554688 L 114.75 68.402344 L 117.859375 67.515625 C 119.582031 67.027344 123.054688 66.027344 125.609375 65.292969 L 130.277344 63.957031 L 130.277344 63.429688 C 130.277344 63.152344 130.195312 62.917969 130.109375 62.917969 C 129.945312 62.917969 129.25 63.109375 120.945312 65.527344 C 118.027344 66.375 115.445312 67.109375 115.167969 67.167969 C 114.777344 67.25 114.722656 67.042969 114.722656 65.167969 L 114.722656 63.082031 L 122.304688 60.890625 C 126.445312 59.695312 132.054688 58.082031 134.722656 57.320312 C 137.390625 56.554688 139.804688 55.832031 140.082031 55.722656 C 140.554688 55.515625 140.777344 54.582031 140.359375 54.582031 C 140.222656 54.597656 137.832031 55.265625 135 56.097656 Z M 112.777344 65.832031 C 112.777344 67.734375 112.722656 67.917969 112.25 68.054688 C 111.167969 68.332031 111.109375 68.25 111.109375 66.195312 C 111.109375 64.277344 111.140625 64.167969 111.722656 63.972656 C 112.054688 63.847656 112.445312 63.75 112.554688 63.75 C 112.695312 63.75 112.777344 64.679688 112.777344 65.832031 Z M 112.777344 65.832031 "/>
<path style=" stroke:none;fill-rule:nonzero;fill:rgb(0%,0%,0%);fill-opacity:1;" d="M 180.890625 76.902344 L 180.972656 92.707031 L 192.359375 92.707031 L 192.359375 64.265625 L 186.832031 62.695312 C 183.804688 61.820312 181.222656 61.109375 181.082031 61.109375 C 180.945312 61.109375 180.859375 67.582031 180.890625 76.902344 Z M 180.890625 76.902344 "/>
<path style=" stroke:none;fill-rule:nonzero;fill:rgb(0%,0%,0%);fill-opacity:1;" d="M 84.445312 94.652344 L 84.445312 95.140625 L 211.667969 95.140625 L 211.667969 94.167969 L 84.445312 94.167969 Z M 84.445312 94.652344 "/>
<path style=" stroke:none;fill-rule:nonzero;fill:rgb(0%,0%,0%);fill-opacity:1;" d="M 84.445312 96.234375 C 84.445312 96.472656 84.609375 96.667969 84.890625 96.722656 C 85.140625 96.765625 113.75 96.804688 148.5 96.804688 L 211.667969 96.804688 L 211.667969 95.832031 L 84.445312 95.832031 Z M 84.445312 96.234375 "/>
<path style=" stroke:none;fill-rule:nonzero;fill:rgb(0%,0%,0%);fill-opacity:1;" d="M 82.222656 103.679688 L 82.222656 107.640625 L 85.277344 107.640625 L 85.304688 104.890625 L 85.304688 102.152344 L 89.304688 107.652344 L 91.082031 107.609375 L 92.859375 107.570312 L 94.890625 104.859375 L 96.917969 102.152344 L 96.917969 104.890625 L 96.945312 107.640625 L 100 107.640625 L 100 99.722656 L 95.390625 99.722656 L 93.304688 102.570312 C 92.195312 104.140625 91.195312 105.417969 91.109375 105.417969 C 91.027344 105.417969 90.027344 104.140625 88.890625 102.570312 L 86.832031 99.722656 L 82.222656 99.722656 Z M 82.222656 103.679688 "/>
<path style=" stroke:none;fill-rule:nonzero;fill:rgb(0%,0%,0%);fill-opacity:1;" d="M 102.777344 103.679688 L 102.777344 107.640625 L 105.832031 107.640625 L 105.832031 99.722656 L 102.777344 99.722656 Z M 102.777344 103.679688 "/>
<path style=" stroke:none;fill-rule:nonzero;fill:rgb(0%,0%,0%);fill-opacity:1;" d="M 108.609375 103.679688 L 108.609375 107.640625 L 111.667969 107.640625 L 111.667969 101.875 L 114.890625 104.75 L 118.109375 107.640625 L 122.222656 107.640625 L 122.222656 99.722656 L 119.167969 99.722656 L 119.167969 105.484375 L 115.945312 102.597656 L 112.722656 99.722656 L 108.609375 99.722656 Z M 108.609375 103.679688 "/>
<path style=" stroke:none;fill-rule:nonzero;fill:rgb(0%,0%,0%);fill-opacity:1;" d="M 125 103.679688 L 125 107.640625 L 128.054688 107.640625 L 128.054688 99.722656 L 125 99.722656 Z M 125 103.679688 "/>
<path style=" stroke:none;fill-rule:nonzero;fill:rgb(0%,0%,0%);fill-opacity:1;" d="M 141.945312 102.390625 C 141.945312 105.277344 142.140625 105.875 143.25 106.527344 C 144.582031 107.332031 145.859375 107.542969 149.667969 107.609375 L 153.054688 107.667969 L 153.054688 106.277344 L 150.167969 106.222656 C 147.75 106.195312 147.140625 106.125 146.472656 105.890625 C 145.109375 105.375 145 105.140625 145 102.320312 L 145 99.722656 L 141.945312 99.722656 Z M 141.945312 102.390625 "/>
<path style=" stroke:none;fill-rule:nonzero;fill:rgb(0%,0%,0%);fill-opacity:1;" d="M 160.472656 99.820312 C 160.195312 100.054688 153.609375 107.472656 153.609375 107.554688 C 153.609375 107.597656 154.359375 107.640625 155.304688 107.640625 L 156.972656 107.640625 L 157.640625 106.875 L 158.332031 106.109375 L 166.25 106.109375 L 166.832031 106.847656 L 167.445312 107.570312 L 169.277344 107.609375 L 171.109375 107.652344 L 170.109375 106.570312 C 169.582031 105.972656 167.972656 104.195312 166.582031 102.609375 L 164.027344 99.734375 L 162.304688 99.722656 C 161.359375 99.722656 160.527344 99.765625 160.472656 99.820312 Z M 164.75 104.402344 C 164.972656 104.722656 164.972656 104.722656 162.222656 104.722656 L 159.472656 104.722656 L 160.445312 103.570312 C 161 102.945312 161.609375 102.207031 161.859375 101.945312 L 162.277344 101.457031 L 163.390625 102.777344 C 164 103.5 164.609375 104.234375 164.75 104.402344 Z M 164.75 104.402344 "/>
<path style=" stroke:none;fill-rule:nonzero;fill:rgb(0%,0%,0%);fill-opacity:1;" d="M 171.945312 103.679688 L 171.945312 107.640625 L 175 107.640625 L 175 101.875 L 178.222656 104.75 L 181.445312 107.640625 L 185.554688 107.640625 L 185.554688 99.722656 L 182.5 99.722656 L 182.5 105.484375 L 179.277344 102.597656 L 176.054688 99.722656 L 171.945312 99.722656 Z M 171.945312 103.679688 "/>
<path style=" stroke:none;fill-rule:nonzero;fill:rgb(0%,0%,0%);fill-opacity:1;" d="M 188.332031 103.679688 L 188.332031 107.640625 L 192.722656 107.640625 C 198.972656 107.640625 200.332031 107.375 201.804688 105.902344 C 202.554688 105.140625 202.640625 104.945312 202.640625 103.679688 C 202.640625 102.417969 202.554688 102.222656 201.804688 101.457031 C 200.332031 99.984375 198.972656 99.722656 192.722656 99.722656 L 188.332031 99.722656 Z M 197.972656 101.472656 C 199.222656 101.929688 199.582031 102.445312 199.582031 103.679688 C 199.582031 104.917969 199.222656 105.429688 197.972656 105.890625 C 197.304688 106.125 196.695312 106.195312 194.277344 106.222656 L 191.390625 106.277344 L 191.390625 101.082031 L 194.277344 101.140625 C 196.695312 101.167969 197.304688 101.234375 197.972656 101.472656 Z M 197.972656 101.472656 "/>
<path style=" stroke:none;fill-rule:nonzero;fill:rgb(0%,0%,0%);fill-opacity:1;" d="M 207.109375 99.859375 C 204.027344 100.332031 203.417969 102.929688 206.195312 103.945312 C 206.859375 104.195312 207.527344 104.234375 210.722656 104.304688 C 214.027344 104.359375 214.527344 104.402344 214.890625 104.640625 C 215.445312 105.027344 215.359375 105.652344 214.722656 105.972656 C 214.222656 106.222656 213.804688 106.25 209.445312 106.25 L 204.722656 106.25 L 204.722656 107.667969 L 210.222656 107.609375 C 214.917969 107.570312 215.832031 107.527344 216.472656 107.320312 C 217.804688 106.890625 218.195312 106.429688 218.195312 105.277344 C 218.195312 104.5 218.054688 104.125 217.695312 103.847656 C 216.75 103.109375 216.027344 103 212 102.917969 C 208.75 102.859375 208.25 102.820312 207.890625 102.582031 C 207.332031 102.195312 207.417969 101.707031 208.054688 101.390625 C 208.554688 101.140625 208.972656 101.109375 213.332031 101.109375 L 218.054688 101.109375 L 218.054688 99.722656 L 213 99.734375 C 210.195312 99.734375 207.554688 99.804688 207.109375 99.859375 Z M 207.109375 99.859375 "/>
<path style=" stroke:none;fill-rule:nonzero;fill:rgb(0%,0%,0%);fill-opacity:1;" d="M 100.832031 112.570312 C 100.832031 113.777344 100.917969 114.027344 101.25 114.027344 C 101.554688 114.027344 101.667969 113.859375 101.667969 113.402344 L 101.667969 112.777344 L 104.445312 112.777344 L 104.445312 113.402344 C 104.445312 113.859375 104.554688 114.027344 104.859375 114.027344 C 105.195312 114.027344 105.277344 113.777344 105.277344 112.570312 C 105.277344 111.359375 105.195312 111.109375 104.859375 111.109375 C 104.554688 111.109375 104.445312 111.277344 104.445312 111.734375 L 104.445312 112.359375 L 101.667969 112.359375 L 101.667969 111.734375 C 101.667969 111.277344 101.554688 111.109375 101.25 111.109375 C 100.917969 111.109375 100.832031 111.359375 100.832031 112.570312 Z M 100.832031 112.570312 "/>
<path style=" stroke:none;fill-rule:nonzero;fill:rgb(0%,0%,0%);fill-opacity:1;" d="M 107.082031 111.457031 C 106.5 111.734375 106.390625 111.929688 106.390625 112.570312 C 106.390625 113.207031 106.5 113.402344 107.082031 113.679688 C 107.5 113.902344 108.082031 114.027344 108.609375 114.027344 C 109.140625 114.027344 109.722656 113.902344 110.140625 113.679688 C 110.722656 113.402344 110.832031 113.207031 110.832031 112.570312 C 110.832031 111.929688 110.722656 111.734375 110.140625 111.457031 C 109.722656 111.234375 109.140625 111.109375 108.609375 111.109375 C 108.082031 111.109375 107.5 111.234375 107.082031 111.457031 Z M 109.5 111.625 C 110.222656 111.945312 110.195312 113.195312 109.445312 113.542969 C 107.972656 114.207031 106.195312 112.902344 107.25 111.902344 C 107.859375 111.347656 108.667969 111.234375 109.5 111.625 Z M 109.5 111.625 "/>
<path style=" stroke:none;fill-rule:nonzero;fill:rgb(0%,0%,0%);fill-opacity:1;" d="M 111.945312 112.554688 C 111.945312 113.75 112.027344 114.027344 112.359375 114.027344 C 112.667969 114.027344 112.777344 113.777344 112.832031 112.945312 L 112.917969 111.875 L 113.75 112.902344 C 114.222656 113.472656 114.722656 113.957031 114.890625 113.984375 C 115.054688 114.015625 115.582031 113.554688 116.054688 112.957031 L 116.917969 111.875 L 116.917969 112.945312 C 116.945312 113.804688 117.027344 114.027344 117.359375 114.027344 C 117.695312 114.027344 117.777344 113.777344 117.777344 112.570312 C 117.777344 111.234375 117.722656 111.109375 117.25 111.109375 C 116.859375 111.109375 116.527344 111.390625 115.832031 112.320312 L 114.917969 113.527344 L 114.027344 112.359375 C 113.332031 111.429688 113 111.167969 112.527344 111.140625 C 111.972656 111.097656 111.945312 111.140625 111.945312 112.554688 Z M 111.945312 112.554688 "/>
<path style=" stroke:none;fill-rule:nonzero;fill:rgb(0%,0%,0%);fill-opacity:1;" d="M 118.890625 112.570312 L 118.890625 114.027344 L 120.695312 114.027344 C 121.722656 114.027344 122.5 113.972656 122.5 113.890625 C 122.5 113.804688 121.890625 113.75 121.109375 113.75 L 119.722656 113.75 L 119.722656 112.640625 L 120.972656 112.640625 C 121.667969 112.640625 122.222656 112.570312 122.222656 112.5 C 122.222656 112.417969 121.667969 112.359375 120.972656 112.359375 C 119.722656 112.359375 119.722656 112.359375 119.722656 111.875 L 119.722656 111.390625 L 121.109375 111.390625 C 121.890625 111.390625 122.5 111.320312 122.5 111.25 C 122.5 111.167969 121.722656 111.109375 120.695312 111.109375 L 118.890625 111.109375 Z M 118.890625 112.570312 "/>
<path style=" stroke:none;fill-rule:nonzero;fill:rgb(0%,0%,0%);fill-opacity:1;" d="M 123.890625 111.390625 C 122.890625 111.890625 123.332031 112.359375 125.140625 112.695312 C 126.109375 112.890625 126.390625 113.015625 126.390625 113.265625 C 126.390625 113.792969 125.027344 113.929688 124.25 113.472656 C 123.695312 113.140625 123.332031 113.109375 123.332031 113.390625 C 123.332031 113.667969 124.417969 114.027344 125.277344 114.027344 C 126.25 114.027344 127.222656 113.652344 127.222656 113.277344 C 127.222656 112.902344 126.582031 112.582031 125.445312 112.402344 C 124.359375 112.234375 123.945312 111.902344 124.417969 111.609375 C 124.917969 111.304688 125.75 111.332031 126.167969 111.667969 C 126.527344 111.957031 127.222656 112.042969 127.222656 111.804688 C 127.222656 111.515625 126.082031 111.109375 125.277344 111.109375 C 124.804688 111.109375 124.195312 111.234375 123.890625 111.390625 Z M 123.890625 111.390625 "/>
<path style=" stroke:none;fill-rule:nonzero;fill:rgb(0%,0%,0%);fill-opacity:1;" d="M 131.804688 111.347656 C 131.554688 111.667969 130 113.929688 130 113.984375 C 130 114.015625 130.167969 114.027344 130.390625 114.027344 C 130.609375 114.027344 130.859375 113.875 130.945312 113.679688 C 131.082031 113.390625 131.277344 113.332031 132.222656 113.332031 C 133.167969 113.332031 133.390625 113.390625 133.609375 113.679688 C 133.75 113.875 134.054688 114.027344 134.25 114.027344 C 134.527344 114.027344 134.359375 113.640625 133.640625 112.570312 C 132.667969 111.152344 132.222656 110.847656 131.804688 111.347656 Z M 133.027344 112.804688 C 133.054688 112.875 132.695312 112.917969 132.222656 112.917969 C 131.695312 112.917969 131.445312 112.859375 131.527344 112.734375 C 131.582031 112.652344 131.804688 112.375 131.972656 112.152344 L 132.277344 111.734375 L 132.640625 112.222656 C 132.859375 112.484375 133.027344 112.75 133.027344 112.804688 Z M 133.027344 112.804688 "/>
<path style=" stroke:none;fill-rule:nonzero;fill:rgb(0%,0%,0%);fill-opacity:1;" d="M 135.277344 112.570312 C 135.277344 113.75 135.359375 114.027344 135.695312 114.027344 C 136 114.027344 136.109375 113.777344 136.167969 112.945312 L 136.25 111.875 L 137.609375 112.945312 C 139.445312 114.429688 139.722656 114.390625 139.722656 112.570312 C 139.722656 111.359375 139.640625 111.109375 139.304688 111.109375 C 138.972656 111.109375 138.890625 111.320312 138.890625 112.179688 L 138.890625 113.265625 L 137.5 112.179688 C 135.582031 110.695312 135.277344 110.734375 135.277344 112.570312 Z M 135.277344 112.570312 "/>
<path style=" stroke:none;fill-rule:nonzero;fill:rgb(0%,0%,0%);fill-opacity:1;" d="M 140.832031 112.570312 L 140.832031 114.027344 L 142.195312 114.027344 C 143.25 114.027344 143.75 113.945312 144.359375 113.695312 C 145.054688 113.402344 145.140625 113.265625 145.140625 112.570312 C 145.140625 111.875 145.054688 111.734375 144.359375 111.445312 C 143.75 111.195312 143.25 111.109375 142.195312 111.109375 L 140.832031 111.109375 Z M 143.890625 111.667969 C 144.277344 111.859375 144.445312 112.125 144.445312 112.570312 C 144.445312 113.320312 143.75 113.75 142.5 113.75 L 141.667969 113.75 L 141.667969 111.390625 L 142.5 111.390625 C 142.972656 111.390625 143.582031 111.515625 143.890625 111.667969 Z M 143.890625 111.667969 "/>
<path style=" stroke:none;fill-rule:nonzero;fill:rgb(0%,0%,0%);fill-opacity:1;" d="M 149.859375 111.347656 C 149.609375 111.667969 148.054688 113.929688 148.054688 113.984375 C 148.054688 114.015625 148.222656 114.027344 148.445312 114.027344 C 148.667969 114.027344 148.917969 113.875 149 113.679688 C 149.140625 113.390625 149.332031 113.332031 150.277344 113.332031 C 151.222656 113.332031 151.445312 113.390625 151.667969 113.679688 C 151.804688 113.875 152.109375 114.027344 152.304688 114.027344 C 152.582031 114.027344 152.417969 113.640625 151.695312 112.570312 C 150.722656 111.152344 150.277344 110.847656 149.859375 111.347656 Z M 151.082031 112.804688 C 151.109375 112.875 150.75 112.917969 150.277344 112.917969 C 149.75 112.917969 149.5 112.859375 149.582031 112.734375 C 149.640625 112.652344 149.859375 112.375 150.027344 112.152344 L 150.332031 111.734375 L 150.695312 112.222656 C 150.917969 112.484375 151.082031 112.75 151.082031 112.804688 Z M 151.082031 112.804688 "/>
<path style=" stroke:none;fill-rule:nonzero;fill:rgb(0%,0%,0%);fill-opacity:1;" d="M 153.332031 112.570312 C 153.332031 113.777344 153.417969 114.027344 153.75 114.027344 C 154.054688 114.027344 154.167969 113.875 154.167969 113.472656 C 154.167969 112.972656 154.25 112.917969 154.832031 112.917969 C 155.695312 112.917969 157 112.667969 157.277344 112.457031 C 157.390625 112.359375 157.5 112.125 157.5 111.917969 C 157.5 111.390625 156.582031 111.109375 154.804688 111.109375 L 153.332031 111.109375 Z M 156.390625 111.582031 C 156.554688 111.695312 156.667969 111.929688 156.609375 112.109375 C 156.554688 112.375 156.332031 112.429688 155.359375 112.472656 L 154.167969 112.515625 L 154.167969 111.957031 C 154.167969 111.402344 154.195312 111.390625 155.109375 111.390625 C 155.609375 111.390625 156.195312 111.484375 156.390625 111.582031 Z M 156.390625 111.582031 "/>
<path style=" stroke:none;fill-rule:nonzero;fill:rgb(0%,0%,0%);fill-opacity:1;" d="M 159.304688 111.347656 C 159.054688 111.667969 157.5 113.929688 157.5 113.984375 C 157.5 114.015625 157.667969 114.027344 157.890625 114.027344 C 158.109375 114.027344 158.359375 113.875 158.445312 113.679688 C 158.582031 113.390625 158.777344 113.332031 159.722656 113.332031 C 160.667969 113.332031 160.890625 113.390625 161.109375 113.679688 C 161.25 113.875 161.554688 114.027344 161.75 114.027344 C 162.027344 114.027344 161.859375 113.640625 161.140625 112.570312 C 160.167969 111.152344 159.722656 110.847656 159.304688 111.347656 Z M 160.527344 112.804688 C 160.554688 112.875 160.195312 112.917969 159.722656 112.917969 C 159.195312 112.917969 158.945312 112.859375 159.027344 112.734375 C 159.082031 112.652344 159.304688 112.375 159.472656 112.152344 L 159.777344 111.734375 L 160.140625 112.222656 C 160.359375 112.484375 160.527344 112.75 160.527344 112.804688 Z M 160.527344 112.804688 "/>
<path style=" stroke:none;fill-rule:nonzero;fill:rgb(0%,0%,0%);fill-opacity:1;" d="M 162.777344 112.570312 C 162.777344 113.777344 162.859375 114.027344 163.195312 114.027344 C 163.5 114.027344 163.609375 113.859375 163.609375 113.402344 C 163.609375 112.777344 163.609375 112.777344 164.582031 112.777344 C 165.640625 112.777344 166.109375 113.054688 166.109375 113.667969 C 166.109375 113.890625 166.277344 114.027344 166.5 114.027344 C 166.804688 114.027344 166.859375 113.890625 166.75 113.429688 C 166.667969 113.109375 166.472656 112.777344 166.332031 112.679688 C 166.195312 112.582031 166.195312 112.484375 166.390625 112.429688 C 166.859375 112.292969 166.722656 111.582031 166.167969 111.347656 C 165.832031 111.195312 165.167969 111.109375 164.222656 111.109375 L 162.777344 111.109375 Z M 165.667969 111.609375 C 166.472656 112 166 112.375 164.695312 112.402344 C 163.804688 112.429688 163.75 112.402344 163.667969 111.902344 C 163.582031 111.417969 163.609375 111.390625 164.417969 111.390625 C 164.859375 111.390625 165.445312 111.484375 165.667969 111.609375 Z M 165.667969 111.609375 "/>
<path style=" stroke:none;fill-rule:nonzero;fill:rgb(0%,0%,0%);fill-opacity:1;" d="M 167.222656 111.25 C 167.222656 111.320312 167.609375 111.390625 168.054688 111.390625 L 168.890625 111.390625 L 168.890625 112.707031 C 168.890625 113.792969 168.972656 114.027344 169.304688 114.027344 C 169.640625 114.027344 169.722656 113.792969 169.722656 112.707031 L 169.722656 111.390625 L 170.695312 111.390625 C 171.222656 111.390625 171.667969 111.320312 171.667969 111.25 C 171.667969 111.167969 170.75 111.109375 169.445312 111.109375 C 168.140625 111.109375 167.222656 111.167969 167.222656 111.25 Z M 167.222656 111.25 "/>
<path style=" stroke:none;fill-rule:nonzero;fill:rgb(0%,0%,0%);fill-opacity:1;" d="M 172.222656 112.554688 C 172.222656 113.75 172.304688 114.027344 172.640625 114.027344 C 172.945312 114.027344 173.054688 113.777344 173.109375 112.945312 L 173.195312 111.875 L 174.027344 112.902344 C 174.5 113.472656 175 113.957031 175.167969 113.984375 C 175.332031 114.015625 175.859375 113.554688 176.332031 112.957031 L 177.195312 111.875 L 177.195312 112.945312 C 177.222656 113.804688 177.304688 114.027344 177.640625 114.027344 C 177.972656 114.027344 178.054688 113.777344 178.054688 112.570312 C 178.054688 111.234375 178 111.109375 177.527344 111.109375 C 177.140625 111.109375 176.804688 111.390625 176.109375 112.320312 L 175.195312 113.527344 L 174.304688 112.359375 C 173.609375 111.429688 173.277344 111.167969 172.804688 111.140625 C 172.25 111.097656 172.222656 111.140625 172.222656 112.554688 Z M 172.222656 112.554688 "/>
<path style=" stroke:none;fill-rule:nonzero;fill:rgb(0%,0%,0%);fill-opacity:1;" d="M 179.167969 112.570312 L 179.167969 114.027344 L 180.972656 114.027344 C 182 114.027344 182.777344 113.972656 182.777344 113.890625 C 182.777344 113.804688 182.167969 113.75 181.390625 113.75 L 180 113.75 L 180 112.640625 L 181.25 112.640625 C 181.945312 112.640625 182.5 112.570312 182.5 112.5 C 182.5 112.417969 181.945312 112.359375 181.25 112.359375 C 180 112.359375 180 112.359375 180 111.875 L 180 111.390625 L 181.390625 111.390625 C 182.167969 111.390625 182.777344 111.320312 182.777344 111.25 C 182.777344 111.167969 182 111.109375 180.972656 111.109375 L 179.167969 111.109375 Z M 179.167969 112.570312 "/>
<path style=" stroke:none;fill-rule:nonzero;fill:rgb(0%,0%,0%);fill-opacity:1;" d="M 183.609375 112.570312 C 183.609375 113.75 183.695312 114.027344 184.027344 114.027344 C 184.332031 114.027344 184.445312 113.777344 184.5 112.945312 L 184.582031 111.875 L 185.945312 112.945312 C 187.777344 114.429688 188.054688 114.390625 188.054688 112.570312 C 188.054688 111.359375 187.972656 111.109375 187.640625 111.109375 C 187.304688 111.109375 187.222656 111.320312 187.222656 112.179688 L 187.222656 113.265625 L 185.832031 112.179688 C 183.917969 110.695312 183.609375 110.734375 183.609375 112.570312 Z M 183.609375 112.570312 "/>
<path style=" stroke:none;fill-rule:nonzero;fill:rgb(0%,0%,0%);fill-opacity:1;" d="M 188.609375 111.25 C 188.609375 111.320312 189 111.390625 189.445312 111.390625 L 190.277344 111.390625 L 190.277344 112.707031 C 190.277344 113.792969 190.359375 114.027344 190.695312 114.027344 C 191.027344 114.027344 191.109375 113.792969 191.109375 112.707031 L 191.109375 111.390625 L 192.082031 111.390625 C 192.609375 111.390625 193.054688 111.320312 193.054688 111.25 C 193.054688 111.167969 192.140625 111.109375 190.832031 111.109375 C 189.527344 111.109375 188.609375 111.167969 188.609375 111.25 Z M 188.609375 111.25 "/>
<path style=" stroke:none;fill-rule:nonzero;fill:rgb(0%,0%,0%);fill-opacity:1;" d="M 194.167969 111.390625 C 193.167969 111.890625 193.609375 112.359375 195.417969 112.695312 C 196.390625 112.890625 196.667969 113.015625 196.667969 113.265625 C 196.667969 113.792969 195.304688 113.929688 194.527344 113.472656 C 193.972656 113.140625 193.609375 113.109375 193.609375 113.390625 C 193.609375 113.667969 194.695312 114.027344 195.554688 114.027344 C 196.527344 114.027344 197.5 113.652344 197.5 113.277344 C 197.5 112.902344 196.859375 112.582031 195.722656 112.402344 C 194.640625 112.234375 194.222656 111.902344 194.695312 111.609375 C 195.195312 111.304688 196.027344 111.332031 196.445312 111.667969 C 196.804688 111.957031 197.5 112.042969 197.5 111.804688 C 197.5 111.515625 196.359375 111.109375 195.554688 111.109375 C 195.082031 111.109375 194.472656 111.234375 194.167969 111.390625 Z M 194.167969 111.390625 "/>
</g>
</svg>
